<svg version="1.1" id="Layer_1" xmlns="http://www.w3.org/2000/svg" xmlns:xlink="http://www.w3.org/1999/xlink" x="0px" y="0px" viewBox="-4 -3 143 38" style="enable-background:new 0 0 135 32;" xml:space="preserve">
<style type="text/css">
	.st0{fill:#ED1B2F;}
	.st1{fill:#FFFFFF;}
</style>
<path class="st0" d="M0.7,14.7c-1.1-4.1-0.5-7.8-0.5-12.4c4.1-2,8.1-2.2,12.5-2.2c3.8,0,9.1,0.5,12.3,2.2c0.3,4.3,0.5,8.1-0.6,12.9  c-1.1,4.9-4.4,11.6-11.7,16.6C4.7,26.6,2.2,20.3,0.7,14.7L0.7,14.7z"/>
<path class="st1" d="M4.5,8.8l-3.9,4.2C1.4,17,3.7,25.6,12.7,31.4c8.8-6.1,11.3-14.3,11.9-18.4l-3.8-4.2L16.5,13l-3.9-4.2L8.7,13  L4.5,8.8L4.5,8.8z"/>
<path class="st1" d="M4.5,5.9c0.6,0,1.8,0.1,2.1,0.3c0.1-0.2,0.8-1.5,0.9-1.9C7.2,4.2,7,4.6,6.9,4.6C6.7,4.3,6.5,4.3,6.4,4.3  c-0.2,0-0.1,0.1,0,0.1c1,0.8-0.5,1.7-0.7,0.8c-1.3,0.1-0.9-0.9-0.6-1c0.2-0.1,0-0.1,0-0.1c-0.1,0-0.2,0-0.3,0c0-0.5,0-0.9-0.3-1  C4.1,3.3,4.1,3.6,4.1,4.1c0-0.1-0.2-0.1-0.3,0c-0.1,0-0.2,0.1,0,0.1c0.3,0.1,0.6,1.1-0.6,1C3,6.1,1.5,5.3,2.5,4.4  c0.1,0,0.2-0.1,0-0.1c-0.1,0-0.3,0-0.5,0.3c-0.1,0-0.4-0.4-0.6-0.3c0.1,0.4,0.8,1.8,0.9,1.9C2.6,6,3.8,5.9,4.5,5.9L4.5,5.9z M4.5,7  c0.5,0,1.2,0,1.6,0.2C6.2,7,6.4,6.6,6.5,6.4C6.1,6.2,5,6.1,4.5,6.1c-0.5,0-1.7,0.1-2,0.3C2.5,6.6,2.7,7,2.8,7.2C3.3,7.1,4,7,4.5,7  L4.5,7z M5.6,5.5l0.3,0.4L5.2,5.8L5.6,5.5L5.6,5.5z M5.2,6.4C5.1,6.4,5,6.5,5,6.6c0,0.1,0.1,0.2,0.2,0.2c0.1,0,0.2-0.1,0.2-0.2  C5.4,6.5,5.3,6.4,5.2,6.4L5.2,6.4z M5.9,6.5c-0.1,0-0.2,0.1-0.2,0.2C5.7,6.9,5.8,7,5.9,7C6,7,6.1,6.9,6.1,6.7C6.1,6.6,6,6.5,5.9,6.5  L5.9,6.5z M4.5,7.6c-0.9,0-1.6-0.1-1.6-0.2c0-0.1,0.7-0.2,1.6-0.2S6,7.3,6,7.4C6,7.5,5.3,7.6,4.5,7.6L4.5,7.6z M4.5,6.3  c0.1,0,0.2,0.1,0.2,0.2c0,0.1-0.1,0.2-0.2,0.2c-0.1,0-0.2-0.1-0.2-0.2C4.2,6.4,4.3,6.3,4.5,6.3L4.5,6.3z M3.7,6.4  C3.9,6.4,4,6.5,4,6.6c0,0.1-0.1,0.2-0.2,0.2c-0.1,0-0.2-0.1-0.2-0.2C3.5,6.5,3.6,6.4,3.7,6.4L3.7,6.4z M3,6.5c0.1,0,0.2,0.1,0.2,0.2  C3.2,6.9,3.1,7,3,7C2.9,7,2.8,6.9,2.8,6.7C2.8,6.6,2.9,6.5,3,6.5L3,6.5z M4.4,5l0.5,0.8H4L4.4,5L4.4,5z M3.3,5.5L3,5.9l0.7-0.1  L3.3,5.5L3.3,5.5z"/>
<path class="st1" d="M20.7,5.9c0.6,0,1.8,0.1,2.1,0.3c0.1-0.2,0.8-1.5,0.9-1.9c-0.3-0.1-0.5,0.2-0.6,0.3c-0.2-0.3-0.4-0.3-0.5-0.3  c-0.2,0-0.1,0.1,0,0.1c1,0.8-0.5,1.7-0.7,0.8c-1.3,0.1-0.9-0.9-0.6-1c0.2-0.1,0-0.1,0-0.1c-0.1,0-0.2,0-0.3,0c0-0.5,0-0.9-0.3-1  c-0.3,0.2-0.4,0.6-0.3,1.1c0-0.1-0.2-0.1-0.3,0c-0.1,0-0.2,0.1,0,0.1c0.3,0.1,0.7,1.1-0.6,1c-0.3,0.8-1.7,0-0.7-0.8  c0.1,0,0.2-0.1,0-0.1c-0.1,0-0.3,0-0.5,0.3c-0.1,0-0.4-0.4-0.6-0.3c0.1,0.4,0.8,1.8,0.9,1.9C18.8,6,20.1,5.9,20.7,5.9L20.7,5.9z   M20.7,7c0.5,0,1.2,0,1.6,0.2c0.1-0.2,0.3-0.6,0.4-0.8c-0.4-0.2-1.5-0.3-2-0.3c-0.5,0-1.7,0.1-2,0.3C18.8,6.6,19,7,19.1,7.2  C19.5,7.1,20.2,7,20.7,7L20.7,7z M21.8,5.5l0.3,0.4l-0.7-0.1L21.8,5.5L21.8,5.5z M21.4,6.4c-0.1,0-0.2,0.1-0.2,0.2  c0,0.1,0.1,0.2,0.2,0.2c0.1,0,0.2-0.1,0.2-0.2C21.7,6.5,21.6,6.4,21.4,6.4L21.4,6.4z M22.1,6.5c-0.1,0-0.2,0.1-0.2,0.2  C21.9,6.9,22,7,22.1,7c0.1,0,0.2-0.1,0.2-0.2C22.4,6.6,22.3,6.5,22.1,6.5L22.1,6.5z M20.7,7.6c-0.9,0-1.6-0.1-1.6-0.2  c0-0.1,0.7-0.2,1.6-0.2c0.9,0,1.6,0.1,1.6,0.2C22.2,7.5,21.6,7.6,20.7,7.6L20.7,7.6z M20.7,6.3c0.1,0,0.2,0.1,0.2,0.2  c0,0.1-0.1,0.2-0.2,0.2c-0.1,0-0.2-0.1-0.2-0.2S20.6,6.3,20.7,6.3L20.7,6.3z M20,6.4c0.1,0,0.2,0.1,0.2,0.2c0,0.1-0.1,0.2-0.2,0.2  c-0.1,0-0.2-0.1-0.2-0.2C19.7,6.5,19.8,6.4,20,6.4L20,6.4z M19.3,6.5c0.1,0,0.2,0.1,0.2,0.2c0,0.1-0.1,0.2-0.2,0.2S19,6.9,19,6.7  C19,6.6,19.1,6.5,19.3,6.5L19.3,6.5z M20.7,5l0.5,0.8h-0.9L20.7,5L20.7,5z M19.6,5.5l-0.3,0.4l0.7-0.1L19.6,5.5L19.6,5.5z"/>
<path class="st0" d="M4,16.7C4,16.5,4.2,16.1,4.2,16c-0.1-0.1-0.2-0.3-0.3-0.3c0.1-0.1,0.3-0.3,0.2-0.4c0-0.1-0.1-0.1-0.4-0.2  c0.1-0.2,0.3-0.3,0.4-0.3c0.1,0,0.1-0.2,0.3-0.3c0.2-0.1,0.4-0.1,0.7-0.1c0.3,0,1.4,0.3,1.1,1.5c0.6,1.2,2.7-0.4,3.4-0.4  c-0.1,0.3-0.3,0.5-0.5,0.8c0.2,0.1,0.5,0,0.7,0c-0.2,0.7-0.6,0.9-0.9,1.2c0.3,1.1,1.6,0.7,2.7,0.5c-0.1,0.4-0.6,0.4-0.8,0.7  c0.4,0.4,0.8,0.9,1.1,1.5c-0.5-0.3-1.5-0.7-1.9-0.8c-0.7-0.3-2-0.3-2.7,0c0.1,0.3,0.4,0.4,0.6,0.5c-0.3,0.7-1,0.3-1.4,0.1  c-0.3,0.3-1,0.3-1.1,0.1c0,0,0-0.2,0.2-0.3c0.1-0.2-0.4-0.2-0.5-0.5c0-0.2,0.3,0,0.4-0.3C5.2,18.4,3.8,18.3,4,16.7L4,16.7z   M4.9,14.8C5,14.8,5,14.8,5,14.9C5,15,5,15,4.9,15c-0.1,0-0.1-0.1-0.1-0.1C4.8,14.8,4.8,14.8,4.9,14.8L4.9,14.8z"/>
<path class="st0" d="M13.4,16.9c0.1-0.1,0.2-0.5,0.3-0.7c-0.1-0.1-0.2-0.3-0.3-0.3c0.1-0.1,0.3-0.3,0.2-0.4c0-0.1-0.1-0.1-0.4-0.2  c0.1-0.2,0.3-0.3,0.4-0.3c0.1,0,0.1-0.2,0.3-0.3c0.2-0.1,0.4-0.1,0.7-0.1c0.3,0,1.4,0.3,1.1,1.5c0.6,1.2,2.7-0.4,3.4-0.4  c-0.1,0.3-0.3,0.5-0.5,0.8c0.2,0.1,0.5,0,0.7,0c-0.2,0.7-0.6,0.9-0.9,1.2c0.3,1.1,1.6,0.7,2.7,0.5c-0.1,0.4-0.6,0.4-0.8,0.7  c0.4,0.4,0.8,0.9,1.1,1.5c-0.5-0.3-1.5-0.7-1.9-0.8c-0.7-0.3-2-0.3-2.7,0c0.1,0.3,0.4,0.4,0.6,0.5c-0.3,0.7-1,0.3-1.4,0.1  c-0.3,0.3-1,0.3-1.1,0.1c0,0,0-0.2,0.2-0.3c0.1-0.2-0.4-0.2-0.5-0.5c0-0.2,0.3,0,0.4-0.3C14.6,18.6,13.2,18.5,13.4,16.9L13.4,16.9z   M14.4,15c0.1,0,0.1,0.1,0.1,0.1c0,0.1-0.1,0.1-0.1,0.1s-0.1-0.1-0.1-0.1C14.2,15,14.3,15,14.4,15L14.4,15z"/>
<path class="st0" d="M8.9,23.6C9,23.4,9.1,23,9.2,22.9c-0.1-0.1-0.2-0.3-0.3-0.3c0.1-0.1,0.3-0.3,0.2-0.4c0-0.1-0.1-0.1-0.4-0.2  c0.1-0.2,0.3-0.3,0.4-0.3c0.1,0,0.1-0.2,0.3-0.3c0.2-0.1,0.4-0.2,0.7-0.1c0.3,0,1.4,0.3,1.1,1.5c0.6,1.2,2.7-0.4,3.4-0.4  c-0.1,0.3-0.3,0.5-0.5,0.8c0.2,0.1,0.5,0,0.7,0c-0.2,0.7-0.6,0.9-0.9,1.2c0.3,1.1,1.6,0.7,2.7,0.5c-0.1,0.4-0.6,0.4-0.8,0.7  c0.4,0.4,0.8,0.9,1.1,1.5c-0.5-0.3-1.5-0.7-1.9-0.8c-0.7-0.3-2-0.3-2.7,0c0.1,0.3,0.4,0.4,0.6,0.5c-0.3,0.7-1,0.3-1.4,0.1  c-0.3,0.3-1,0.3-1.1,0.1c0,0,0-0.2,0.2-0.3c0.1-0.2-0.4-0.2-0.5-0.5c0-0.2,0.3,0,0.4-0.3C10.1,25.3,8.7,25.2,8.9,23.6L8.9,23.6z   M9.8,21.7c0.1,0,0.1,0.1,0.1,0.1s-0.1,0.1-0.1,0.1c-0.1,0-0.1-0.1-0.1-0.1S9.8,21.7,9.8,21.7L9.8,21.7z"/>
<path class="st1" d="M12.6,7.2c-0.2,0.2-0.3,0.2-0.2,0.4h0.5C12.9,7.4,12.9,7.3,12.6,7.2L12.6,7.2z M15.4,1.9c0,0-0.6,0.2-1.1,0  c-0.6-0.3-1.1-0.3-1.5-0.2v5.1c0.4-0.2,0.8-0.1,1.3,0C14.6,7,15,7,15.4,7L15.4,1.9L15.4,1.9z M15.6,1.9L16,2.3v5.1L15.6,7L15.6,1.9  L15.6,1.9z M15.9,7.5l-0.5-0.4c-0.3,0.1-1.1,0-1.5-0.1c-0.6-0.1-0.8-0.2-1.2,0c0.2,0.1,0.3,0.3,0.3,0.5L15.9,7.5L15.9,7.5z M9.4,7.5  l0.5-0.4c0.3,0.1,1.1,0,1.5-0.1c0.6-0.1,0.8-0.2,1.2,0c-0.2,0.1-0.3,0.3-0.3,0.5L9.4,7.5L9.4,7.5z M9.7,1.9L9.3,2.4v5.1L9.7,7V1.9  L9.7,1.9z M9.9,1.9c0,0,0.6,0.2,1.1,0c0.6-0.3,1.1-0.3,1.5-0.2v5.1c-0.4-0.2-0.8-0.1-1.3,0C10.6,7,10.3,7,9.9,7L9.9,1.9L9.9,1.9z"/>
<path class="st0" d="M13,2.8c0-0.2,0.1-0.3,0.3-0.3c0.2,0,0.3,0.1,0.3,0.2h-0.1c0-0.1,0-0.1-0.1-0.1c-0.1,0-0.2,0.1-0.2,0.2  c0,0.1,0.1,0.2,0.2,0.2c0.1,0,0.1,0,0.2-0.1h0.1c0,0.1-0.1,0.3-0.3,0.3C13.1,3.2,13,3.1,13,2.8L13,2.8z M13.7,2.9  c0-0.2,0.1-0.4,0.3-0.4c0.2,0,0.3,0.1,0.3,0.4c0,0.2-0.1,0.3-0.3,0.3C13.7,3.3,13.7,3.1,13.7,2.9L13.7,2.9z M13.8,2.9  c0,0.1,0,0.2,0.2,0.2c0.1,0,0.2-0.1,0.2-0.2c0-0.1,0-0.2-0.2-0.2C13.9,2.7,13.8,2.7,13.8,2.9L13.8,2.9z M14.4,3.3V2.7h0.1l0.3,0.5  V2.7H15v0.7h-0.1l-0.3-0.5v0.5L14.4,3.3L14.4,3.3z M13.6,4.6V3.9h0.5v0.1h-0.3v0.2H14v0.1h-0.3v0.3L13.6,4.6L13.6,4.6z M14.2,4.7V4  h0.1v0.7L14.2,4.7L14.2,4.7z M13.7,6h-0.3V5.3h0.3C14.1,5.4,14,6,13.7,6L13.7,6z M13.5,5.9h0.1c0.2,0,0.2-0.4,0-0.4h-0.1L13.5,5.9  L13.5,5.9z M14.1,5.8c0-0.2,0.1-0.4,0.3-0.4c0.2,0,0.3,0.1,0.3,0.4c0,0.2-0.1,0.3-0.3,0.3C14.1,6.1,14.1,5.9,14.1,5.8L14.1,5.8z   M14.2,5.7c0,0.1,0,0.2,0.2,0.2c0.1,0,0.2-0.1,0.2-0.2c0-0.1,0-0.2-0.2-0.2C14.3,5.6,14.2,5.6,14.2,5.7L14.2,5.7z M10.6,3.3V2.6h0.1  v0.7L10.6,3.3L10.6,3.3z M10.9,3.2V2.5h0.1L11.4,3V2.5h0.1v0.7h-0.1l-0.3-0.5v0.5H10.9L10.9,3.2z M10.4,4.7h-0.3V4h0.3  C10.8,4,10.7,4.6,10.4,4.7L10.4,4.7z M10.3,4.6h0.1c0.2,0,0.2-0.4,0-0.4h-0.1V4.6L10.3,4.6z M10.8,4.2c0-0.2,0.1-0.4,0.3-0.4  c0.2,0,0.3,0.1,0.3,0.4c0,0.2-0.1,0.3-0.3,0.3C10.8,4.6,10.8,4.4,10.8,4.2L10.8,4.2z M10.9,4.2c0,0.1,0,0.2,0.2,0.2  c0.1,0,0.2-0.1,0.2-0.2c0-0.1,0-0.2-0.2-0.2C11,4,10.9,4,10.9,4.2L10.9,4.2z M11.5,4.5V3.8h0.2l0.1,0.5L12,3.8h0.2v0.7H12V4  l-0.1,0.5h-0.1L11.7,4v0.5H11.5L11.5,4.5z M10.4,6.1V5.5h0.1v0.7H10.4L10.4,6.1z M10.7,6V5.4h0.1l0.3,0.5V5.4h0.1V6h-0.1l-0.3-0.5V6  L10.7,6L10.7,6z M11.4,5.7c0-0.2,0.1-0.4,0.3-0.4c0.2,0,0.3,0.1,0.3,0.4C12,5.8,12,6,11.7,6C11.5,6,11.4,5.8,11.4,5.7L11.4,5.7z   M11.5,5.6c0,0.1,0,0.2,0.2,0.2c0.1,0,0.2-0.1,0.2-0.2c0-0.1,0-0.2-0.2-0.2C11.7,5.4,11.6,5.5,11.5,5.6L11.5,5.6z"/>
<path class="st0" d="M110.1,3.8c1.1,0,1.9,0.9,1.9,1.9c0,1.1-0.9,2-1.9,2c-1.1,0-1.9-0.9-1.9-2C108.1,4.6,109,3.8,110.1,3.8  L110.1,3.8z M128.5,24.4c-0.1,0.9-0.5,1.4-2.1,1.9c-1.3,0.4-1.1,1.1,0.2,1.1c3.4-0.5,4.5-0.4,7.6-0.1c1.2,0,1-0.8,0.3-1.2  c-1.8-0.7-2.1-0.7-2.5-2.5l-0.1-18c0-1,0.4-2.2-0.7-2c-2.1,0.8-2.2,0.9-4.1,1.5c-1,0.4-0.6,0.9,0.1,1.1c1,0.4,1.1,1,1.1,1.8  L128.5,24.4L128.5,24.4z M117.9,24.3c-0.1,0.8-0.5,1.4-2.1,1.9c-1.3,0.4-1.1,1.1,0.2,1.1c3.4-0.5,4.5-0.4,7.6-0.1  c1.2,0,1-0.8,0.3-1.2c-1.8-0.7-2.1-0.7-2.4-2.5l-0.1-18c0-1,0.4-2.2-0.7-2c-2.1,0.8-2.2,0.9-4.1,1.5c-1,0.4-0.6,0.9,0.1,1.1  c1,0.4,1.1,1,1.1,1.8L117.9,24.3L117.9,24.3z M108.2,17.2c-0.1-0.9-0.2-1.6-1.3-1.9c-0.7-0.1-1.1-0.8,0-1.2c2.1-0.7,2.5-0.8,4.1-2.1  c0.5-0.3,1.1-0.1,0.8,0.9c-0.1,0.7-0.1,1-0.2,1.8l0,9.4c0.1,1.5,1.3,1.8,2,2.1c0.8,0.3,0.8,1.2-0.1,1.2c-3.3-0.5-4.1-0.5-7.3,0.1  c-1.1,0-1.3-0.8,0-1.3c1.3-0.5,1.8-0.7,1.8-1.8L108.2,17.2L108.2,17.2z M78.7,15.4c0.7-8,5.9-11.4,13.1-12c7.6,0.1,8.7,0.6,8.6,4.8  c0.1,1.5-1,1.9-1.7,0.2c-0.8-1.6-1.5-2.5-3.4-3.3c-6.6-1.5-11.4,2.7-11.7,9.9c-0.5,10.1,10.9,13.1,13.2,9.3c0.5-1,0.5-3.6,0.4-5.8  c-0.4-1.4-1.8-1.3-3.1-1.3c-1.4,0.1-1.9-1.5,0-1.5c1.9,0,5.4,0.2,10-0.3c1.4,0.1,1.5,1.3-0.2,1.5c-0.7,0.1-2.2,0.1-2.4,1.3  c-0.2,6.2,1.3,6.8-3.4,8.4c-5.9,1.4-12.3,0.7-15.9-2.7C80.6,22.6,78.5,19.3,78.7,15.4L78.7,15.4z M63.4,19.5c0.7-6.7,6.2-8.2,9-8.3  c3.4,0.1,4.4,1.2,4.5,2.3c0,1.1-0.8,1.7-1.6,1.5c-1.9-0.5-1.5-2.4-4-2.6c-2.8,0.4-4.5,3.5-4,7.3c0.5,3.7,4.1,6.5,8.5,4.3  c1.1-0.2,1.2,0.6,0.3,1.3C68,30.3,63,23.2,63.4,19.5L63.4,19.5z M38.3,8.3C38.1,6,37.4,6.7,35.6,6c-1.4-0.3-1.5-1.3-0.1-1.3  c2.5,0.2,3.8,0.2,5.9-0.1c1,0.2,1.4,0.5,1.7,1.5c1.8,3.7,4.3,9.3,6.1,13c0.3,0.7,0.5,0.8,0.9-0.1l5.2-13.2c0.6-1.1,1.2-1.4,3-1.2  c3.1,0.1,3.9,0,5.4-0.2c1.3,0.1,1.2,1.1-0.1,1.4c-2,0-3.1,0.7-3.4,2.2l0.3,15.2c0.3,2.3,1.5,2.3,3.6,2.9c1,0.4,0.7,1.1-0.1,1.3  c-4.4-0.5-5.9-0.5-10.3-0.1c-1.3,0.1-1.3-1,0-1.3c1.6-0.4,2-0.6,2.4-1.5L55.8,9.9c-0.1-0.6-0.4-0.6-0.6,0.1l-6.2,15.4  c-0.6,1.3-0.8,1.3-1.5,0.3L40.2,9.9c-0.2-0.5-0.5-0.4-0.5,0l0.1,14c0.2,1.6,1.3,1.7,3.6,2.4c0.6,0.2,0.7,0.8,0.2,1.1  C39,27,38.3,27,34.2,27.5c-0.6,0-1-1,0.1-1.1c2.2-0.6,2.8-0.7,3.1-1.9L38.3,8.3L38.3,8.3z"/>
</svg>